<?xml version="1.0" standalone="no"?>
<!DOCTYPE svg PUBLIC "-//W3C//DTD SVG 20010904//EN"
 "http://www.w3.org/TR/2001/REC-SVG-20010904/DTD/svg10.dtd">
<svg version="1.0" xmlns="http://www.w3.org/2000/svg"
 width="512.000000pt" height="512.000000pt" viewBox="0 0 512.000000 512.000000"
 preserveAspectRatio="xMidYMid meet">
<metadata>
Created by potrace 1.14, written by Peter Selinger 2001-2017
</metadata>
<g transform="translate(0.000000,512.000000) scale(0.100000,-0.100000)"
fill="#000000" stroke="none">
<path d="M2507 4284 c-1 -1 -44 -5 -96 -9 -52 -3 -97 -8 -100 -10 -3 -1 -22
-6 -41 -9 -352 -58 -698 -256 -948 -542 -68 -77 -178 -247 -228 -351 -46 -96
-108 -263 -97 -263 3 0 1 -6 -4 -12 -6 -7 -14 -31 -18 -53 -5 -22 -10 -47 -12
-55 -2 -8 -10 -67 -19 -130 -23 -170 -13 -383 27 -560 6 -25 12 -53 14 -63 9
-40 60 -177 96 -255 189 -411 544 -726 973 -867 694 -227 1459 38 1861 645
117 178 205 385 241 568 25 132 29 176 29 337 0 144 -5 207 -20 285 -3 14 -7
34 -9 45 -13 65 -41 162 -73 245 -127 334 -353 611 -658 805 -152 97 -410 198
-561 220 -21 4 -46 8 -54 10 -34 9 -296 25 -303 19z m228 -128 c493 -58 940
-367 1168 -809 67 -130 126 -298 142 -404 3 -21 7 -48 9 -60 17 -86 22 -261
11 -378 -14 -155 -69 -351 -142 -504 -41 -86 -144 -254 -162 -266 -13 -7 -79
47 -106 87 -14 20 -28 61 -33 90 l-7 53 -38 0 c-20 1 -38 -2 -38 -5 -1 -3 -3
-20 -5 -38 -2 -18 -12 -49 -23 -70 -118 -228 -527 -183 -568 63 -8 45 -11 49
-38 51 -32 2 -58 -13 -49 -27 11 -19 -27 -106 -64 -143 -57 -60 -132 -90 -222
-91 -92 0 -117 6 -183 43 -65 36 -114 105 -123 171 -6 47 -6 47 -43 46 -36 -1
-36 -1 -42 -52 -15 -123 -128 -211 -279 -217 -164 -8 -302 93 -312 228 -3 37
-5 39 -39 41 -36 3 -37 2 -43 -43 -3 -25 -17 -64 -30 -87 -23 -39 -89 -95
-113 -95 -22 0 -147 207 -193 320 -53 133 -57 143 -80 240 -31 133 -35 173
-35 355 0 187 5 232 41 372 153 605 691 1072 1300 1129 38 4 70 7 71 8 5 4
216 -2 268 -8z m-1045 -2482 c98 -45 223 -56 318 -28 66 20 139 64 178 106 18
21 37 38 40 38 3 0 16 -13 30 -29 60 -72 186 -123 303 -123 118 0 222 41 297
118 l43 45 36 -40 c87 -96 249 -144 395 -117 62 12 157 63 201 109 l43 45 46
-47 c25 -26 56 -54 70 -63 l25 -17 -100 -98 c-113 -110 -239 -200 -374 -269
-84 -42 -94 -45 -125 -34 -46 15 -108 61 -137 101 -13 19 -28 58 -35 89 -10
53 -12 55 -43 56 -36 0 -41 -4 -46 -45 -16 -125 -144 -221 -295 -221 -165 0
-294 106 -299 245 -1 17 -7 21 -38 20 l-38 0 -6 -52 c-8 -65 -38 -114 -96
-158 -71 -54 -96 -55 -202 -1 -136 67 -263 159 -379 272 l-103 101 45 27 c25
15 57 41 71 59 l26 32 52 -50 c29 -28 72 -60 97 -71z m645 -430 c165 -96 391
-71 518 60 27 27 52 45 55 39 25 -37 55 -65 96 -91 l47 -30 -33 -11 c-57 -18
-151 -40 -198 -46 -140 -20 -176 -22 -285 -20 -115 3 -233 13 -246 21 -4 2
-22 6 -40 9 -19 3 -65 14 -103 24 l-70 18 41 26 c23 14 56 43 74 65 l32 39 35
-39 c20 -22 54 -50 77 -64z"/>
<path d="M1468 3263 c-7 -14 -1 -776 6 -813 35 -177 174 -270 411 -275 127 -2
246 36 320 103 74 67 104 155 106 309 1 52 5 83 12 85 10 3 452 2 482 -1 7 -1
10 -84 10 -238 l0 -238 86 -3 86 -3 -1 241 c-1 207 1 240 14 241 8 1 122 2
252 3 203 1 237 -1 240 -14 2 -8 3 -118 2 -243 l-1 -228 86 3 86 3 0 537 1
537 -86 0 -86 0 1 -207 c0 -114 -1 -214 -3 -223 -3 -14 -33 -16 -253 -16 -137
1 -249 3 -250 6 0 3 -1 103 -2 221 l-2 215 -82 3 c-63 2 -83 0 -84 -10 -1 -7
-2 -107 -3 -223 l-1 -210 -252 -1 -251 -1 0 166 c-1 91 -1 192 -1 223 l-1 57
-85 0 -85 0 0 -367 c0 -202 -2 -378 -5 -392 -4 -14 -8 -36 -11 -49 -12 -59
-86 -121 -159 -136 -33 -6 -115 -7 -156 -1 -49 7 -111 53 -136 99 -31 61 -34
102 -36 497 l-2 345 -82 3 c-45 1 -83 -1 -85 -5z"/>
<path d="M3808 4258 c6 -7 29 -33 52 -58 23 -25 80 -94 125 -155 46 -60 118
-146 161 -190 80 -82 235 -217 242 -210 2 2 -15 56 -37 120 -90 263 -194 371
-451 471 -99 38 -107 40 -92 22z"/>
<path d="M1141 4189 c-117 -56 -171 -91 -220 -140 -39 -40 -126 -165 -134
-194 -3 -11 -20 -66 -37 -123 -18 -57 -30 -105 -28 -107 6 -6 158 123 223 190
33 34 100 117 150 186 49 68 99 133 110 144 11 11 36 37 54 58 35 37 35 37 10
37 -13 0 -71 -23 -128 -51z"/>
<path d="M4285 4019 c16 -19 35 -39 41 -44 20 -18 61 -109 75 -165 17 -69 15
-62 21 -80 13 -32 67 -244 64 -247 -2 -2 -25 19 -52 48 -27 28 -105 92 -174
142 -142 104 -134 97 -179 157 -48 63 -54 69 -46 42 3 -12 8 -36 10 -53 5 -39
67 -166 100 -204 55 -64 104 -111 199 -187 112 -91 206 -182 232 -228 10 -16
22 -30 26 -30 5 0 7 114 4 253 -4 279 -10 311 -69 405 -64 102 -170 192 -257
217 -25 7 -25 7 5 -26z"/>
<path d="M754 3985 c-32 -19 -85 -63 -118 -98 -72 -77 -109 -147 -121 -232 -2
-11 -6 -36 -10 -55 -4 -19 -7 -57 -8 -85 0 -53 14 -278 18 -283 1 -2 -1 -17
-5 -35 -4 -18 -4 -41 -1 -50 6 -15 13 -9 38 30 40 62 110 133 210 214 82 67
111 95 181 175 74 86 164 296 119 278 -9 -3 -19 -14 -22 -24 -6 -17 -56 -67
-122 -121 -18 -14 -74 -58 -126 -99 -51 -41 -111 -96 -132 -122 -21 -27 -40
-46 -43 -44 -2 2 8 42 22 88 15 46 28 92 30 103 46 216 67 273 132 345 19 21
31 41 26 44 -5 3 -36 -10 -68 -29z"/>
<path d="M4627 3723 c3 -10 9 -22 14 -28 4 -5 14 -35 23 -65 12 -44 14 -88 10
-225 -3 -93 -7 -229 -7 -302 -1 -72 -5 -134 -8 -138 -4 -3 -15 17 -24 45 -22
67 -67 122 -240 293 -117 115 -145 138 -145 119 0 -29 33 -131 66 -200 13 -29
24 -55 24 -58 0 -3 5 -10 10 -17 6 -7 57 -77 115 -157 110 -152 172 -259 200
-348 10 -29 21 -50 25 -45 10 10 51 146 57 188 2 17 18 71 35 120 16 50 32
101 34 115 3 14 7 33 10 42 6 22 6 211 -1 258 -17 120 -45 201 -104 298 -51
85 -111 152 -94 105z"/>
<path d="M435 3658 c-32 -38 -120 -211 -129 -253 -28 -139 -28 -259 -2 -403 5
-28 46 -145 89 -257 6 -16 13 -37 14 -45 2 -18 23 -98 30 -120 5 -14 28 36 38
80 5 26 73 140 154 260 43 63 92 135 108 160 27 40 39 63 74 145 30 70 40 104
45 144 l5 46 -54 -55 c-29 -30 -88 -86 -130 -125 -102 -94 -166 -184 -196
-277 -7 -21 -16 -38 -19 -38 -4 0 -7 57 -7 127 0 119 -8 230 -22 313 -17 96 2
256 35 308 22 33 -2 27 -33 -10z"/>
<path d="M4889 3060 c0 -25 -2 -54 -5 -65 -2 -11 -6 -40 -10 -65 -9 -62 -48
-184 -87 -272 -38 -82 -81 -200 -98 -268 -14 -56 -24 -39 -32 52 -3 36 -16 88
-28 115 -12 26 -28 63 -36 82 -9 19 -35 64 -59 101 -52 80 -124 219 -124 240
-1 11 -3 11 -11 -3 -29 -50 28 -347 122 -642 36 -113 42 -148 41 -260 0 -49 2
-93 5 -97 2 -5 38 38 80 95 42 56 103 138 136 182 89 120 123 202 152 366 25
138 21 275 -11 404 -19 78 -34 92 -35 35z"/>
<path d="M209 3035 c-1 -8 -2 -18 -4 -22 -3 -12 -15 -75 -19 -103 -3 -14 -5
-25 -6 -25 -1 0 -4 -40 -5 -90 -8 -247 87 -503 254 -685 23 -25 61 -73 84
-107 22 -35 44 -63 48 -63 3 0 6 26 7 58 3 143 12 223 36 297 49 155 97 341
101 390 2 28 7 61 10 75 11 45 17 210 9 210 -5 0 -16 -10 -23 -22 -17 -27
-121 -235 -121 -241 0 -3 -18 -43 -39 -89 -50 -103 -71 -184 -71 -265 0 -87
-23 -82 -34 7 -4 31 -24 108 -35 135 -5 11 -21 46 -35 78 -43 95 -82 192 -85
210 0 4 -7 20 -15 35 -19 36 -32 114 -35 205 -1 28 -20 39 -22 12z"/>
<path d="M4416 2449 c-12 -36 -27 -88 -31 -105 -18 -70 -35 -156 -40 -199 -3
-27 -7 -66 -10 -85 -6 -48 -15 -151 -21 -235 -7 -100 -49 -287 -78 -352 -15
-30 -26 -57 -26 -60 0 -11 264 160 375 242 182 135 303 302 349 482 27 105 37
256 18 275 -6 6 -12 -9 -16 -39 -14 -92 -66 -172 -226 -342 -141 -151 -154
-167 -211 -254 -29 -43 -54 -76 -56 -73 -2 2 5 32 16 67 38 119 42 221 16 349
-3 14 -7 36 -10 50 -12 57 -25 149 -30 214 -6 71 -11 90 -19 65z"/>
<path d="M699 2378 c0 -13 -2 -31 -4 -40 -2 -9 -5 -34 -8 -55 -3 -22 -14 -73
-24 -114 -26 -110 -23 -342 5 -424 11 -33 19 -61 17 -63 -2 -2 -16 16 -31 40
-41 65 -123 160 -293 337 -88 92 -168 225 -173 287 -1 12 -6 20 -11 17 -11 -6
-3 -164 12 -240 36 -185 173 -370 381 -513 36 -25 67 -47 70 -50 3 -3 12 -9
21 -15 10 -5 38 -25 63 -42 26 -18 49 -33 52 -33 3 0 34 -20 71 -45 36 -25 69
-45 74 -45 8 0 -4 32 -42 116 -33 74 -56 207 -74 429 -4 44 -8 79 -20 175 -10
76 -38 210 -56 268 -12 37 -29 43 -30 10z"/>
<path d="M4210 1905 c-25 -36 -53 -74 -62 -86 -35 -43 -107 -199 -152 -329
-84 -243 -132 -338 -208 -419 -21 -22 -38 -42 -38 -44 0 -9 57 1 80 13 11 6
20 8 20 6 0 -3 11 -1 25 4 14 5 46 12 72 15 27 4 56 9 66 11 10 3 31 7 48 9
203 26 459 185 595 370 24 33 48 65 52 70 17 23 92 209 92 230 0 16 -18 0 -34
-29 -21 -39 -131 -151 -193 -196 -23 -17 -108 -65 -190 -106 -81 -42 -191
-105 -243 -139 -52 -35 -99 -61 -104 -58 -4 3 -4 8 1 12 22 15 89 131 111 190
22 61 42 140 47 186 1 11 3 20 4 20 1 0 4 16 6 35 2 19 6 49 9 65 4 17 9 46
12 65 3 19 14 62 25 95 31 99 22 101 -41 10z"/>
<path d="M860 1937 c0 -2 7 -26 15 -53 16 -53 44 -181 50 -229 3 -16 7 -47 9
-69 3 -21 8 -46 11 -56 3 -10 7 -27 9 -37 19 -92 79 -214 138 -276 21 -22 36
-42 35 -44 -2 -2 -21 9 -43 24 -152 104 -206 137 -301 184 -231 113 -351 201
-422 314 -36 57 -39 48 -10 -38 68 -203 246 -400 457 -507 89 -45 141 -60 302
-89 58 -11 116 -22 130 -25 73 -17 88 -19 117 -21 l31 -3 -32 33 c-77 77 -138
191 -207 389 -28 78 -70 182 -94 231 -53 108 -195 306 -195 272z"/>
<path d="M3892 1443 c-38 -26 -151 -125 -232 -203 -141 -135 -194 -182 -249
-219 -72 -49 -151 -86 -207 -97 -22 -5 -42 -9 -46 -10 -5 -1 -12 -2 -18 -3
-14 -2 -12 -18 3 -18 38 -1 112 -14 187 -32 98 -24 208 -48 264 -57 21 -3 48
-8 60 -10 30 -6 225 -5 261 1 146 27 293 105 401 213 58 58 131 158 122 167
-3 3 -25 -13 -49 -35 -24 -22 -73 -55 -109 -74 -56 -29 -78 -37 -135 -52 -14
-3 -62 -11 -115 -19 -25 -4 -56 -8 -70 -10 -14 -2 -54 -7 -90 -10 -36 -3 -78
-8 -95 -10 -39 -7 -83 -12 -170 -21 -38 -3 -73 -8 -77 -11 -5 -2 -8 -1 -8 4 0
4 23 19 51 31 124 57 180 125 294 354 40 82 71 148 70 148 -1 0 -20 -12 -43
-27z"/>
<path d="M1190 1441 c0 -6 4 -13 10 -16 5 -3 20 -27 34 -53 71 -140 146 -267
178 -305 38 -46 129 -112 162 -118 11 -2 21 -9 23 -16 3 -7 -3 -11 -14 -9 -17
3 -59 9 -163 22 -25 3 -70 7 -100 9 -245 19 -256 20 -348 45 -87 24 -172 67
-227 115 -55 48 -62 44 -23 -12 107 -157 276 -273 463 -318 56 -14 250 -13
340 1 50 8 178 36 284 62 158 40 189 50 165 56 -52 13 -218 79 -256 102 -33
21 -125 102 -203 179 -43 42 -190 173 -251 223 -51 41 -74 51 -74 33z"/>
<path d="M2750 904 c-14 -3 -59 -12 -100 -21 -41 -9 -78 -16 -81 -15 -4 1 -17
3 -30 6 -13 3 -42 10 -64 15 -41 10 -275 8 -330 -3 -54 -11 -186 -57 -309
-108 -157 -64 -254 -96 -319 -105 -56 -7 -156 -7 -197 0 -54 11 -86 19 -115
32 -57 25 -107 45 -113 45 -15 0 112 -109 162 -139 111 -66 171 -85 345 -106
34 -4 184 28 250 54 52 20 136 68 321 186 116 75 218 106 274 85 18 -6 9 -13
-54 -45 -155 -78 -450 -302 -450 -341 0 -13 75 -74 90 -74 7 0 47 35 90 78
122 122 174 168 252 223 156 112 191 125 258 97 58 -25 231 -160 343 -268 148
-143 138 -138 187 -94 22 20 40 42 40 49 0 36 -258 233 -423 322 -49 26 -82
50 -76 54 19 11 122 2 162 -15 21 -8 95 -53 165 -100 188 -124 264 -158 412
-182 34 -5 173 -5 215 0 108 15 272 104 374 204 36 35 19 36 -47 3 -33 -17
-75 -33 -93 -36 -18 -3 -36 -8 -42 -12 -5 -3 -62 -5 -126 -5 -108 1 -205 15
-271 40 -14 5 -27 9 -30 8 -3 0 -17 6 -30 15 -50 32 -267 112 -365 134 -92 20
-214 29 -275 19z"/>
</g>
</svg>
